# xmcd CD database file
#
# Track frame offsets:
#	150
#	12570
#	27284
#	55516
#	83000
#	135883
#	176595
#	206751
#	214698
#	233200
#
# Disc length: 3567 seconds
#
# Revision: 0
# Processed by: cddbd v1.5.2PL0 Copyright (c) Steve Scherf et al.
# Submitted via: CDex 1.50
#
DISCID=7b0ded0a
DTITLE=Erwin Vann - Let's call Ed
DYEAR=2005
DGENRE=Jazz
TTITLE0=Twister
TTITLE1=In The Air
TTITLE2=He Knew Before Sally
TTITLE3=Seven Bombs
TTITLE4=She Realized It Was Too Early
TTITLE5=Stone/Water
TTITLE6=Hunny I'm Home
TTITLE7=Call This
TTITLE8=You Remind Me Of Frank
TTITLE9=They Met
EXTD=YEAR: 2005
EXTT0=
EXTT1=
EXTT2=
EXTT3=
EXTT4=
EXTT5=
EXTT6=
EXTT7=
EXTT8=
EXTT9=
PLAYORDER=
